<?xml version="1.0" standalone="no"?>
<!DOCTYPE svg PUBLIC "-//W3C//DTD SVG 20010904//EN"
 "http://www.w3.org/TR/2001/REC-SVG-20010904/DTD/svg10.dtd">
<svg version="1.0" xmlns="http://www.w3.org/2000/svg"
 width="700.000000pt" height="700.000000pt" viewBox="0 0 700.000000 700.000000"
 preserveAspectRatio="xMidYMid meet">
<metadata>
Created by potrace 1.11, written by Peter Selinger 2001-2013
</metadata>
<g transform="translate(0.000000,700.000000) scale(0.100000,-0.100000)"
fill="#000000" stroke="none">
<path d="M1905 4911 c-146 -53 -217 -128 -259 -270 -24 -82 -24 -891 0 -972
43 -145 116 -223 253 -269 54 -18 85 -20 287 -20 l227 0 50 -50 51 -51 -45
-45 c-31 -30 -64 -51 -109 -68 -171 -61 -214 -105 -276 -275 -34 -93 -83 -140
-178 -169 -97 -31 -155 -70 -198 -135 -38 -57 -71 -146 -70 -186 2 -76 77
-211 140 -254 21 -14 65 -37 100 -52 l63 -26 482 3 482 3 65 34 c86 44 124 82
168 166 l37 70 3 1138 2 1138 -30 73 c-42 100 -83 145 -177 192 l-78 39 -470
2 c-434 2 -474 1 -520 -16z"/>
<path d="M4095 4911 c-132 -47 -182 -90 -234 -201 l-36 -75 -3 -465 -3 -465
27 -70 c36 -93 73 -143 136 -184 95 -63 142 -71 393 -71 l222 0 47 -43 c25
-24 46 -51 46 -60 0 -28 -87 -90 -167 -120 -142 -52 -208 -122 -248 -261 -24
-82 -89 -147 -171 -171 -137 -39 -208 -106 -259 -240 -31 -83 -29 -108 22
-213 44 -89 89 -130 189 -172 l73 -30 466 0 466 0 73 30 c100 42 145 83 192
176 l39 77 3 1116 c3 1246 6 1184 -66 1295 -44 66 -93 104 -185 139 l-67 27
-453 0 c-410 -1 -457 -2 -502 -19z"/>
</g>
</svg>
